<svg width="35" height="35" viewBox="0 0 35 35" fill="none" xmlns="http://www.w3.org/2000/svg">
<path d="M28.5768 4.95499C28.3045 4.71224 27.8841 4.7339 27.6376 5.00346C27.3925 5.27312 27.4142 5.68848 27.6871 5.93132C28.264 6.44496 28.7968 6.9984 29.285 7.58409L27.3569 13.4465L23.4683 14.851L17.9447 10.8854V6.67121L22.9841 3.05432C23.8622 3.39592 24.7107 3.81596 25.5175 4.31462C25.8289 4.50708 26.2389 4.41357 26.4337 4.10594C26.6286 3.79831 26.5335 3.39286 26.2227 3.2005C23.5458 1.5463 20.4536 0.671875 17.2798 0.671875C14.3422 0.671875 11.4499 1.42789 8.91577 2.85833C6.46138 4.24354 4.37922 6.2339 2.89429 8.61405C2.70174 8.92292 2.79878 9.3277 3.11147 9.51815C3.22015 9.58438 3.34077 9.61605 3.45975 9.61605C3.68285 9.61605 3.90069 9.50508 4.02645 9.30374C4.11586 9.16033 4.20794 9.01863 4.30202 8.87836L5.88867 13.7029L1.73628 16.6831C1.81109 14.9675 2.17054 13.2954 2.80842 11.7036C2.94363 11.3662 2.77645 10.9846 2.43504 10.8509C2.09382 10.7174 1.70718 10.8824 1.57216 11.2198C0.788378 13.175 0.391052 15.241 0.391052 17.3603C0.391052 26.5622 7.9673 34.0487 17.2798 34.0487C26.5922 34.0487 34.1683 26.5622 34.1683 17.3603C34.1683 12.639 32.1306 8.11749 28.5768 4.95499ZM30.3967 25.621L24.153 25.6047L21.7801 22.5313L23.8962 16.0956L27.785 14.6911L32.8087 18.2968C32.6446 20.9804 31.7822 23.4806 30.3967 25.621ZM30.2556 8.88342C31.7982 11.1911 32.6962 13.8866 32.822 16.6824L28.6711 13.7029L30.2556 8.88342ZM20.5569 21.9988H14.0025L11.977 15.8391L17.2798 12.0323L22.5824 15.8391L20.5569 21.9988ZM21.4338 2.54287L17.2798 5.52445L13.1266 2.54353C14.4725 2.17645 15.8702 1.986 17.2798 1.986C18.6939 1.986 20.0899 2.17607 21.4338 2.54287ZM5.27464 7.5839C6.47521 6.1463 7.93428 4.9255 9.57521 3.99926C10.2188 3.63609 10.8882 3.32178 11.5759 3.0546L16.6148 6.67121V10.8854L11.0912 14.8511L7.20269 13.4466L5.27464 7.5839ZM6.77464 14.6911L10.6632 16.0954L12.7793 22.5312L10.3932 25.6217H4.16338C2.77769 23.4811 1.91471 20.9806 1.75059 18.2968L6.77464 14.6911ZM5.11643 26.9357H10.2391L11.8254 31.7587C9.16958 30.7732 6.8568 29.0899 5.11643 26.9357ZM22.4936 31.8455L22.8981 30.6157C23.0116 30.2705 22.8205 29.8999 22.4714 29.7877C22.1223 29.6755 21.747 29.8644 21.6334 30.2096L20.9451 32.3025C19.7691 32.5842 18.542 32.7347 17.2798 32.7347C15.9349 32.7347 14.6296 32.565 13.3841 32.2466L11.4623 26.4034L13.8485 23.3129H20.7109L22.9485 26.2108L22.5131 27.5347C22.3996 27.8797 22.5908 28.2504 22.94 28.3626C23.0082 28.3845 23.0775 28.3949 23.1455 28.3949C23.4258 28.3949 23.6865 28.2183 23.7777 27.9408L24.114 26.9185L29.4455 26.9325C27.653 29.1531 25.2515 30.8734 22.4936 31.8455Z" fill="#0099FF"/>
</svg>
