<svg width="39" height="57" viewBox="0 0 39 57" fill="none" xmlns="http://www.w3.org/2000/svg">
<path d="M10.545 56.0441C4.36089 35.5707 17.4279 28.0953 17.4279 28.0953C16.5137 39.0201 22.6928 47.531 22.6928 47.531C24.9657 46.8424 29.3035 43.6226 29.3035 43.6226C29.3035 47.531 27.0144 56.0393 27.0144 56.0393C27.0144 56.0393 35.0268 49.8144 37.5494 39.4761C40.0687 29.1376 32.7513 18.7583 32.7513 18.7583C33.1923 26.0758 30.7281 33.2726 25.9012 38.7709C26.1422 38.4908 26.3448 38.1797 26.5007 37.8426C27.3681 36.0999 28.7603 31.5708 27.945 21.0825C26.7974 6.35967 13.5196 0.151367 13.5196 0.151367C14.664 9.12188 11.2324 11.1886 3.1938 28.2158C-4.84474 45.2401 10.545 56.0441 10.545 56.0441Z" fill="#FF5454"/>
</svg>
